<mxfile host="app.diagrams.net" modified="2024-01-20T10:37:23.808Z" agent="Mozilla/5.0 (Macintosh; Intel Mac OS X 10_15_7) AppleWebKit/537.36 (KHTML, like Gecko) Chrome/120.0.0.0 Safari/537.36" version="22.1.21" etag="nzLuOLGTE3YkLRrNLyPZ" type="github">
  <diagram name="Page-1" id="ZzobZEByHojpSS9nCx9t">
    <mxGraphModel>
      <root>
        <mxCell id="0" />
        <mxCell id="1" parent="0" />
      </root>
    </mxGraphModel>
  </diagram>
</mxfile>
